<?xml version="1.0" encoding="UTF-8"?>
<svg id="Camada_2" data-name="Camada 2" xmlns="http://www.w3.org/2000/svg" viewBox="0 0 11759.12 2796.81">
  <defs>
    <style>
      .cls-1 {
        fill: #a6032f;
      }

      .cls-2 {
        fill: #064559;
      }
    </style>
  </defs>
  <g id="Camada_1-2" data-name="Camada 1">
    <g>
      <path class="cls-2" d="m5532.51,515.96c-12.73,12.73-19.88,30-19.88,48v2164.96c0,37.43,30.45,67.88,67.89,67.88h45.26c37.49,0,67.88-30.39,67.88-67.88V354.81l-161.14,161.14Z"/>
      <g>
        <path class="cls-1" d="m6143.74,252.79c-37.49,0-67.88-30.39-67.88-67.88v-114.85c0-37.49,30.39-67.88,67.88-67.88h45.26c37.49,0,67.88,30.39,67.88,67.88v182.73h-113.14Z"/>
        <path class="cls-2" d="m6143.74,2796.8c-37.43,0-67.88-30.45-67.88-67.88V513.21c0-37.43,30.45-67.88,67.88-67.88h113.14v2283.6c0,37.43-30.45,67.88-67.88,67.88h-45.26Z"/>
      </g>
      <g>
        <path class="cls-1" d="m2358.43,252.79c-37.43,0-67.88-30.45-67.88-67.88v-114.85c0-37.43,30.45-67.88,67.88-67.88h45.26c37.43,0,67.88,30.45,67.88,67.88v182.73h-113.14Z"/>
        <path class="cls-2" d="m2358.43,2796.8c-37.43,0-67.88-30.45-67.88-67.88V513.21c0-37.43,30.45-67.88,67.88-67.88h113.14v2283.6c0,37.43-30.45,67.88-67.88,67.88h-45.26Z"/>
      </g>
      <g>
        <path class="cls-1" d="m8401.05,2796.8c-22.74,0-43.85-11.3-56.48-30.22l-686.59-1063.03h181.23c22.75,0,43.86,11.3,56.48,30.23l686.59,1063.02h-181.23Z"/>
        <path class="cls-2" d="m6706.96,2796.8c-37.43,0-67.88-30.45-67.88-67.88v-1329.47c0-37.37,30.4-67.82,67.76-67.88l1083.68-2.13c316.71,0,574.29-257.59,574.29-574.2s-257.59-574.2-574.2-574.2l-970.5,2.08v956.95h-113.14c-37.43,0-67.88-30.45-67.88-67.88V70.02c0-37.37,30.4-67.82,67.76-67.88l1083.68-2.13c416.52,0,755.31,338.79,755.31,755.23s-338.79,755.23-755.23,755.23l-970.5,2.08v1216.39c0,37.43-30.45,67.88-67.88,67.88h-45.26Z"/>
      </g>
      <g>
        <path class="cls-2" d="m10361.79,2796.8c-373.23,0-724.13-145.34-988.05-409.26-263.91-263.91-409.26-614.81-409.26-988.05s145.34-724.13,409.26-988.05c120.12-120.11,258.45-216.12,411.15-285.35,152.33-69.07,264.22-104.87,432.67-115.93l48.22-3.17v116.68c0,35.46-26.77,62.79-61.81,67.61-612.46,84.21-1060.17,597.22-1059.95,1213.56.24,668.55,549.17,1212.44,1217.77,1212.44h.74c258.52-.63,503.72-77.78,741.47-251.7l31.77-26.69,75.47,75.46c13.51,13.52,20.73,32.22,19.79,51.32-.94,19.13-9.13,38.17-24.78,49.23-123.78,87.49-217.76,144.72-373.25,200.78-150.48,54.25-309.16,81.13-471.21,81.13Z"/>
        <path class="cls-1" d="m11320.68,2249.86c-25.04-25.04-24.3-63.81-3.4-92.31,176.62-240.94,263-479.96,262.29-758.06-1.64-635.99-480.87-1143.08-1079.73-1211.63l-41.53-3.96v-104.78c0-37.44,30.75-72.45,67.94-67.9,109.64,13.41,260.15,44.89,423.83,120.08,146.18,67.15,282.71,163.08,399.77,280.13,263.92,263.92,407.74,614.82,409.26,988.05,1.34,328.8-101.44,617.1-324.31,897.2l-31.91,35.37-82.2-82.2Z"/>
      </g>
      <g>
        <path class="cls-2" d="m181.02,2355.37V70.06c0-37.49-30.39-67.88-67.88-67.88h-45.26C30.39,2.18,0,32.57,0,70.06v2353.19h113.14c37.49,0,67.88-30.39,67.88-67.88Z"/>
        <path class="cls-2" d="m0,2615.78v113.14c0,37.49,30.39,67.88,67.88,67.88h1772.57c37.49,0,67.88-30.39,67.88-67.88v-113.14H0Z"/>
      </g>
      <g>
        <path class="cls-2" d="m2921.65,2796.8c-37.43,0-67.88-30.45-67.88-67.88V70.06c0-37.43,30.45-67.88,67.88-67.88h45.26c37.43,0,67.88,30.45,67.88,67.88v2726.74h-113.14Z"/>
        <path class="cls-1" d="m5498.4,22.1l-1224.69,1226.76L3222.19,197.33v227.89c0,18.12,7.06,35.16,19.88,48l983.63,983.63c12.82,12.83,29.87,19.89,48.01,19.89s35.18-7.06,48.01-19.88L5672.58,103.61c12.82-12.83,19.88-29.87,19.88-48V2.18h-146.02c-18.02,0-35.31,7.17-48.04,19.92Z"/>
        <rect class="cls-1" x="4183.2" y="2040.68" width="181.02" height="1331.22" rx="67.88" ry="67.88" transform="translate(1567.42 6980) rotate(-90)"/>
        <rect class="cls-1" x="4183.2" y="-572.92" width="181.02" height="1331.22" rx="67.88" ry="67.88" transform="translate(4181.02 4366.4) rotate(-90)"/>
      </g>
    </g>
  </g>
</svg>